<mxfile host="app.diagrams.net" modified="2022-12-17T10:02:32.506Z" agent="5.0 (Macintosh; Intel Mac OS X 10_12_6) AppleWebKit/537.36 (KHTML, like Gecko) Chrome/103.0.0.0 Safari/537.36" version="20.6.2" etag="0Vbg3yO-faIj3rukfSS7" type="github">
  <diagram id="dkxRQ0wBEK6qD3qMeS5u" name="第 1 页">
    <mxGraphModel dx="633" dy="744" grid="1" gridSize="10" guides="1" tooltips="1" connect="1" arrows="1" fold="1" page="1" pageScale="1" pageWidth="827" pageHeight="1169" math="0" shadow="0">
      <root>
        <mxCell id="0" />
        <mxCell id="1" parent="0" />
        <mxCell id="Fm5cXRNh-TQMBSuCH8Tv-1" value="&lt;font style=&quot;font-size: 18px;&quot;&gt;forEach&lt;/font&gt;" style="rounded=1;whiteSpace=wrap;html=1;fillColor=#d5e8d4;strokeColor=#82b366;" vertex="1" parent="1">
          <mxGeometry x="80" y="80" width="120" height="60" as="geometry" />
        </mxCell>
      </root>
    </mxGraphModel>
  </diagram>
</mxfile>
